<svg viewBox="0 0 2255 1597" xmlns:ev="http://www.w3.org/2001/xml-events" xmlns="http://www.w3.org/2000/svg" width="2255" xmlns:xlink="http://www.w3.org/1999/xlink" height="1597"><defs/><g transform="translate(5.5,5.5)" id="page1"><rect y="0" fill="none" x="0" width="2245" height="1587"/><g transform="translate(296.500000,69.000000)" id="shape1"><path stroke-width="1" fill="#73922e" d="M22.0,44.0L78.0,44.0L78.0,44.0C90.2,44.0,100.0,34.2,100.0,22.0C100.0,9.8,90.2,.0,78.0,.0L22.0,.0L22.0,.0C9.8,.0,.0,9.8,.0,22.0C.0,34.2,9.8,44.0,22.0,44.0z" fill-rule="nonzero" stroke="#5a7422"/><text style="fill:#ffffff;font-family:微软雅黑,PingFang SC,Mircrosoft YaHei,Arial;font-size:10.00pt" xml:space="preserve"><tspan style="font-family:微软雅黑,PingFang SC,Mircrosoft YaHei,Arial" y="27.5" x="37.0">开始</tspan></text></g><g transform="translate(268.000000,140.000000)" id="shape2"><path stroke-width="1" fill="#6744ab" d="M157.0,60.0L157.0,.0L.0,.0L.0,60.0L157.0,60.0z" fill-rule="nonzero" stroke="#503588"/><text style="fill:#ffffff;font-family:微软雅黑,PingFang SC,Mircrosoft YaHei,Arial;font-size:10.00pt" xml:space="preserve"><tspan style="font-family:微软雅黑,PingFang SC,Mircrosoft YaHei,Arial" y="35.5" x="34.0">Linux 系统启动</tspan></text></g><g transform="translate(346.500000,113.000000)" id="shape3"><path stroke-width="1" fill="none" d="M.0,.0L.0,21.0" stroke="#3266b4"/><path stroke-linecap="round" stroke-width="1" fill="#3266b4" d="M3.0,21.0L.0,27.0L-3.0,21.0L3.0,21.0" stroke="#3266b4"/></g><g transform="translate(478.375000,140.000000)" id="shape4"><path stroke-width="1" fill="#295192" d="M7.5,.0L119.0,.0L119.0,.0C114.2,8.9,111.5,19.2,111.5,30.0C111.5,40.9,114.2,51.1,119.0,60.0L7.5,60.0L7.5,60.0C2.7,51.1,.0,40.8,.0,30.0C.0,19.1,2.7,8.9,7.5,.0z" fill-rule="nonzero" stroke="#1e3f74"/><text style="fill:#ffffff;font-family:微软雅黑,PingFang SC,Mircrosoft YaHei,Arial;font-size:10.00pt" xml:space="preserve"><tspan style="font-family:微软雅黑,PingFang SC,Mircrosoft YaHei,Arial" y="35.5" x="17.0">Shell 后台启动</tspan></text></g><g transform="translate(478.375000,170.000000)" id="shape5"><path stroke-width="1" fill="none" d="M.0,.0L-47.4,.0" stroke="#3266b4"/><path stroke-linecap="round" stroke-width="1" fill="#3266b4" d="M-47.4,3.0L-53.4,.0L-47.4,-3.0L-47.4,3.0" stroke="#3266b4"/></g><g transform="translate(650.750000,133.500000)" id="shape6"><path stroke-width="1" fill="#295192" d="M9.1,.0L286.5,.0L286.5,.0C280.7,10.9,277.4,23.3,277.4,36.5C277.4,49.7,280.7,62.1,286.5,73.0L9.1,73.0L9.1,73.0C3.3,62.1,.0,49.7,.0,36.5C.0,23.3,3.3,10.9,9.1,.0z" fill-rule="nonzero" stroke="#1e3f74"/><text style="fill:#ffffff;font-family:微软雅黑,PingFang SC,Mircrosoft YaHei,Arial;font-size:10.00pt" xml:space="preserve"><tspan style="font-family:微软雅黑,PingFang SC,Mircrosoft YaHei,Arial" y="42.0" x="15.3">Shell 是用户和 Linux 操作系统交互的界面。</tspan></text></g><g transform="translate(650.750000,170.000000)" id="shape7"><path stroke-width="1" fill="none" d="M.0,.0L-54.9,.0" stroke="#3266b4"/><path stroke-linecap="round" stroke-width="1" fill="#3266b4" d="M-54.9,3.0L-60.9,.0L-54.9,-3.0L-54.9,3.0" stroke="#3266b4"/></g><g transform="translate(990.630000,133.500000)" id="shape8"><path stroke-width="1" fill="#295192" d="M9.1,.0L308.0,.0L308.0,.0C302.2,10.9,298.9,23.3,298.9,36.5C298.9,49.7,302.2,62.1,308.0,73.0L9.1,73.0L9.1,73.0C3.3,62.1,.0,49.7,.0,36.5C.0,23.3,3.3,10.9,9.1,.0z" fill-rule="nonzero" stroke="#1e3f74"/><text style="fill:#ffffff;font-family:微软雅黑,PingFang SC,Mircrosoft YaHei,Arial;font-size:10.00pt" xml:space="preserve"><tspan style="font-family:微软雅黑,PingFang SC,Mircrosoft YaHei,Arial" y="42.0" x="20.5">Shell 中内部自带了很多命令，被称为内部命令</tspan></text></g><g transform="translate(990.625000,170.000000)" id="shape9"><path stroke-width="1" fill="none" d="M.0,.0L-56.5,.0" stroke="#3266b4"/><path stroke-linecap="round" stroke-width="1" fill="#3266b4" d="M-56.5,3.0L-62.5,.0L-56.5,-3.0L-56.5,3.0" stroke="#3266b4"/></g><g transform="translate(268.000000,230.500000)" id="shape10"><path stroke-width="1" fill="#6744ab" d="M157.0,60.0L157.0,.0L.0,.0L.0,60.0L157.0,60.0z" fill-rule="nonzero" stroke="#503588"/><text style="fill:#ffffff;font-family:微软雅黑,PingFang SC,Mircrosoft YaHei,Arial;font-size:10.00pt" xml:space="preserve"><tspan style="font-family:微软雅黑,PingFang SC,Mircrosoft YaHei,Arial" y="35.5" x="19.0">用户登录到 Linux 中</tspan></text></g><g transform="translate(346.500000,200.000000)" id="shape11"><path stroke-width="1" fill="none" d="M.0,.0L.0,24.5" stroke="#3266b4"/><path stroke-linecap="round" stroke-width="1" fill="#3266b4" d="M3.0,24.5L.0,30.5L-3.0,24.5L3.0,24.5" stroke="#3266b4"/></g><g transform="translate(268.000000,321.000000)" id="shape12"><path stroke-width="1" fill="#6744ab" d="M157.0,60.0L157.0,.0L.0,.0L.0,60.0L157.0,60.0z" fill-rule="nonzero" stroke="#503588"/><text style="fill:#ffffff;font-family:微软雅黑,PingFang SC,Mircrosoft YaHei,Arial;font-size:10.00pt" xml:space="preserve"><tspan style="font-family:微软雅黑,PingFang SC,Mircrosoft YaHei,Arial" y="35.5" x="39.5">用户输入命令</tspan></text></g><g transform="translate(346.500000,290.500000)" id="shape13"><path stroke-width="1" fill="none" d="M.0,.0L.0,24.5" stroke="#3266b4"/><path stroke-linecap="round" stroke-width="1" fill="#3266b4" d="M3.0,24.5L.0,30.5L-3.0,24.5L3.0,24.5" stroke="#3266b4"/></g><g transform="translate(255.500000,410.562500)" id="shape14"><path stroke-width="1" fill="#bc564b" d="M91.0,130.9L182.0,65.4L91.0,.0L.0,65.4L91.0,130.9z" fill-rule="nonzero" stroke="#95433a"/><text style="fill:#ffffff;font-family:微软雅黑,PingFang SC,Mircrosoft YaHei,Arial;font-size:10.00pt" xml:space="preserve"><tspan style="font-family:微软雅黑,PingFang SC,Mircrosoft YaHei,Arial" y="61.4" x="35.5">Shell 判断是内部命</tspan><tspan style="font-family:微软雅黑,PingFang SC,Mircrosoft YaHei,Arial" y="80.4" x="45.5">令还是外部命令</tspan></text></g><g transform="translate(57.000000,446.000000)" id="shape15"><path stroke-width="1" fill="#6744ab" d="M157.0,60.0L157.0,.0L.0,.0L.0,60.0L157.0,60.0z" fill-rule="nonzero" stroke="#503588"/><text style="fill:#ffffff;font-family:微软雅黑,PingFang SC,Mircrosoft YaHei,Arial;font-size:10.00pt" xml:space="preserve"><tspan style="font-family:微软雅黑,PingFang SC,Mircrosoft YaHei,Arial" y="35.5" x="36.0">Shell 直接处理</tspan></text></g><g transform="translate(255.500000,594.000000)" id="shape16"><path stroke-width="1" fill="#6744ab" d="M182.0,60.0L182.0,.0L.0,.0L.0,60.0L182.0,60.0z" fill-rule="nonzero" stroke="#503588"/><text style="fill:#ffffff;font-family:微软雅黑,PingFang SC,Mircrosoft YaHei,Arial;font-size:10.00pt" xml:space="preserve"><tspan style="font-family:微软雅黑,PingFang SC,Mircrosoft YaHei,Arial" y="35.5" x="16.0">Shell 对外部命令进行解析</tspan></text></g><g transform="translate(346.500000,541.438000)" id="shape17"><path stroke-width="1" fill="none" d="M.0,.0L.0,46.0" stroke="#3266b4"/><path stroke-linecap="round" stroke-width="1" fill="#3266b4" d="M3.0,46.0L.0,52.0L-3.0,46.0L3.0,46.0" stroke="#3266b4"/><rect y="16.5" fill="#ffffff" x="-38.0" width="78.0" height="19.0"/><text style="fill:#191919;font-family:微软雅黑,PingFang SC,Mircrosoft YaHei,Arial;font-size:10.00pt" xml:space="preserve"><tspan style="font-family:微软雅黑,PingFang SC,Mircrosoft YaHei,Arial" y="31.5" x="-38.0">不是内部命令</tspan></text></g><g transform="translate(236.500000,677.000000)" id="shape18"><path stroke-width="1" fill="#6744ab" d="M220.0,60.0L220.0,.0L.0,.0L.0,60.0L220.0,60.0z" fill-rule="nonzero" stroke="#503588"/><text style="fill:#ffffff;font-family:微软雅黑,PingFang SC,Mircrosoft YaHei,Arial;font-size:10.00pt" xml:space="preserve"><tspan style="font-family:微软雅黑,PingFang SC,Mircrosoft YaHei,Arial" y="35.5" x="5.5">Shell  去 PATH 环境变量中查找命令</tspan></text></g><g transform="translate(524.750000,642.062500)" id="shape19"><path stroke-width="1" fill="#bc564b" d="M91.0,129.9L182.0,64.9L91.0,.0L.0,64.9L91.0,129.9z" fill-rule="nonzero" stroke="#95433a"/><text style="fill:#ffffff;font-family:微软雅黑,PingFang SC,Mircrosoft YaHei,Arial;font-size:10.00pt" xml:space="preserve"><tspan style="font-family:微软雅黑,PingFang SC,Mircrosoft YaHei,Arial" y="60.9" x="35.5">Shell 判断外部命令</tspan><tspan style="font-family:微软雅黑,PingFang SC,Mircrosoft YaHei,Arial" y="79.9" x="65.0">是否存在</tspan></text></g><g transform="translate(763.000000,677.000000)" id="shape20"><path stroke-width="1" fill="#6744ab" d="M242.0,60.0L242.0,.0L.0,.0L.0,60.0L242.0,60.0z" fill-rule="nonzero" stroke="#503588"/><text style="fill:#ffffff;font-family:微软雅黑,PingFang SC,Mircrosoft YaHei,Arial;font-size:10.00pt" xml:space="preserve"><tspan style="font-family:微软雅黑,PingFang SC,Mircrosoft YaHei,Arial" y="35.5" x="49.5">直接报错，该命令不存在</tspan></text></g><g transform="translate(524.750000,815.437700)" id="shape21"><path stroke-width="1" fill="#bc564b" d="M91.0,129.6L182.0,64.8L91.0,.0L.0,64.8L91.0,129.6z" fill-rule="nonzero" stroke="#95433a"/><text style="fill:#ffffff;font-family:微软雅黑,PingFang SC,Mircrosoft YaHei,Arial;font-size:10.00pt" xml:space="preserve"><tspan style="font-family:微软雅黑,PingFang SC,Mircrosoft YaHei,Arial" y="51.3" x="35.5">Shell 判断当前用户</tspan><tspan style="font-family:微软雅黑,PingFang SC,Mircrosoft YaHei,Arial" y="70.3" x="39.0">是否有权限执行该</tspan><tspan style="font-family:微软雅黑,PingFang SC,Mircrosoft YaHei,Arial" y="89.3" x="78.0">命令</tspan></text></g><g transform="translate(615.750000,771.937500)" id="shape22"><path stroke-width="1" fill="none" d="M.0,.0L.0,38.0" stroke="#3266b4"/><path stroke-linecap="round" stroke-width="1" fill="#3266b4" d="M3.0,38.0L.0,44.0L-3.0,38.0L3.0,38.0" stroke="#3266b4"/><rect y="12.5" fill="#ffffff" x="-12.0" width="26.0" height="19.0"/><text style="fill:#191919;font-family:微软雅黑,PingFang SC,Mircrosoft YaHei,Arial;font-size:10.00pt" xml:space="preserve"><tspan style="font-family:微软雅黑,PingFang SC,Mircrosoft YaHei,Arial" y="27.5" x="-12.0">存在</tspan></text></g><g transform="translate(763.000000,850.219000)" id="shape23"><path stroke-width="1" fill="#6744ab" d="M242.0,60.0L242.0,.0L.0,.0L.0,60.0L242.0,60.0z" fill-rule="nonzero" stroke="#503588"/><text style="fill:#ffffff;font-family:微软雅黑,PingFang SC,Mircrosoft YaHei,Arial;font-size:10.00pt" xml:space="preserve"><tspan style="font-family:微软雅黑,PingFang SC,Mircrosoft YaHei,Arial" y="35.5" x="56.0">直接报错，权限不存在</tspan></text></g><g transform="translate(505.750000,988.000000)" id="shape24"><path stroke-width="1" fill="#6744ab" d="M220.0,60.0L220.0,.0L.0,.0L.0,60.0L220.0,60.0z" fill-rule="nonzero" stroke="#503588"/><text style="fill:#ffffff;font-family:微软雅黑,PingFang SC,Mircrosoft YaHei,Arial;font-size:10.00pt" xml:space="preserve"><tspan style="font-family:微软雅黑,PingFang SC,Mircrosoft YaHei,Arial" y="35.5" x="84.0">执行命令</tspan></text></g><g transform="translate(615.750000,945.000000)" id="shape25"><path stroke-width="1" fill="none" d="M.0,.0L.0,36.0" stroke="#3266b4"/><path stroke-linecap="round" stroke-width="1" fill="#3266b4" d="M3.0,36.0L.0,42.0L-3.0,36.0L3.0,36.0" stroke="#3266b4"/><rect y="11.5" fill="#ffffff" x="-5.5" width="13.0" height="19.0"/><text style="fill:#191919;font-family:微软雅黑,PingFang SC,Mircrosoft YaHei,Arial;font-size:10.00pt" xml:space="preserve"><tspan style="font-family:微软雅黑,PingFang SC,Mircrosoft YaHei,Arial" y="26.5" x="-5.5">是</tspan></text></g><g transform="translate(524.750000,1090.996200)" id="shape26"><path stroke-width="1" fill="#bc564b" d="M91.0,129.2L182.0,64.6L91.0,.0L.0,64.6L91.0,129.2z" fill-rule="nonzero" stroke="#95433a"/><text style="fill:#ffffff;font-family:微软雅黑,PingFang SC,Mircrosoft YaHei,Arial;font-size:10.00pt" xml:space="preserve"><tspan style="font-family:微软雅黑,PingFang SC,Mircrosoft YaHei,Arial" y="70.1" x="39.0">是否涉及到重定向</tspan></text></g><g transform="translate(615.750000,1048.000000)" id="shape27"><path stroke-width="1" fill="none" d="M.0,.0L.0,37.0" stroke="#3266b4"/><path stroke-linecap="round" stroke-width="1" fill="#3266b4" d="M3.0,37.0L.0,43.0L-3.0,37.0L3.0,37.0" stroke="#3266b4"/></g><g transform="translate(763.000000,1125.590000)" id="shape28"><path stroke-width="1" fill="#6744ab" d="M242.0,60.0L242.0,.0L.0,.0L.0,60.0L242.0,60.0z" fill-rule="nonzero" stroke="#503588"/><text style="fill:#ffffff;font-family:微软雅黑,PingFang SC,Mircrosoft YaHei,Arial;font-size:10.00pt" xml:space="preserve"><tspan style="font-family:微软雅黑,PingFang SC,Mircrosoft YaHei,Arial" y="35.5" x="10.5">输出可能会被发送到命令或其他命令中</tspan></text></g><g transform="translate(505.750000,1263.190000)" id="shape29"><path stroke-width="1" fill="#6744ab" d="M220.0,60.0L220.0,.0L.0,.0L.0,60.0L220.0,60.0z" fill-rule="nonzero" stroke="#503588"/><text style="fill:#ffffff;font-family:微软雅黑,PingFang SC,Mircrosoft YaHei,Arial;font-size:10.00pt" xml:space="preserve"><tspan style="font-family:微软雅黑,PingFang SC,Mircrosoft YaHei,Arial" y="26.0" x="12.5">其输出（如果有的话）将被返回到 </tspan><tspan style="font-family:微软雅黑,PingFang SC,Mircrosoft YaHei,Arial" y="45.0" x="30.5">Shell，通常会显示在终端上</tspan></text></g><g transform="translate(615.750000,1220.190000)" id="shape30"><path stroke-width="1" fill="none" d="M.0,.0L.0,37.0" stroke="#3266b4"/><path stroke-linecap="round" stroke-width="1" fill="#3266b4" d="M3.0,37.0L.0,43.0L-3.0,37.0L3.0,37.0" stroke="#3266b4"/><rect y="12.0" fill="#ffffff" x="-5.5" width="13.0" height="19.0"/><text style="fill:#191919;font-family:微软雅黑,PingFang SC,Mircrosoft YaHei,Arial;font-size:10.00pt" xml:space="preserve"><tspan style="font-family:微软雅黑,PingFang SC,Mircrosoft YaHei,Arial" y="27.0" x="-5.5">否</tspan></text></g><g transform="translate(505.750000,1366.190000)" id="shape31"><path stroke-width="1" fill="#6744ab" d="M220.0,92.0L220.0,.0L.0,.0L.0,92.0L220.0,92.0z" fill-rule="nonzero" stroke="#503588"/><text style="fill:#ffffff;font-family:微软雅黑,PingFang SC,Mircrosoft YaHei,Arial;font-size:10.00pt" xml:space="preserve"><tspan style="font-family:微软雅黑,PingFang SC,Mircrosoft YaHei,Arial" y="23.0" x="6.0">执行完毕后，命令进程结束，并将退</tspan><tspan style="font-family:微软雅黑,PingFang SC,Mircrosoft YaHei,Arial" y="42.0" x="48.0">出状态返回给 Shell。</tspan><tspan style="font-family:微软雅黑,PingFang SC,Mircrosoft YaHei,Arial" y="61.0" x="9.0">Shell 接着返回到等待状态，等待下</tspan><tspan style="font-family:微软雅黑,PingFang SC,Mircrosoft YaHei,Arial" y="80.0" x="58.0">一个命令的输入。</tspan></text></g><g transform="translate(615.750000,1323.190000)" id="shape32"><path stroke-width="1" fill="none" d="M.0,.0L.0,37.0" stroke="#3266b4"/><path stroke-linecap="round" stroke-width="1" fill="#3266b4" d="M3.0,37.0L.0,43.0L-3.0,37.0L3.0,37.0" stroke="#3266b4"/></g><g transform="translate(565.750000,1487.000000)" id="shape33"><path stroke-width="1" fill="#73922e" d="M22.0,44.0L78.0,44.0L78.0,44.0C90.2,44.0,100.0,34.2,100.0,22.0C100.0,9.8,90.2,.0,78.0,.0L22.0,.0L22.0,.0C9.8,.0,.0,9.8,.0,22.0C.0,34.2,9.8,44.0,22.0,44.0z" fill-rule="nonzero" stroke="#5a7422"/><text style="fill:#ffffff;font-family:微软雅黑,PingFang SC,Mircrosoft YaHei,Arial;font-size:10.00pt" xml:space="preserve"><tspan style="font-family:微软雅黑,PingFang SC,Mircrosoft YaHei,Arial" y="27.5" x="37.0">结束</tspan></text></g><g transform="translate(615.750000,1458.190000)" id="shape34"><path stroke-width="1" fill="none" d="M.0,.0L.0,22.8" stroke="#3266b4"/><path stroke-linecap="round" stroke-width="1" fill="#3266b4" d="M3.0,22.8L.0,28.8L-3.0,22.8L3.0,22.8" stroke="#3266b4"/></g><g transform="translate(346.500000,381.000000)" id="shape35"><path stroke-width="1" fill="none" d="M.0,.0L.0,23.6" stroke="#3266b4"/><path stroke-linecap="round" stroke-width="1" fill="#3266b4" d="M3.0,23.6L.0,29.6L-3.0,23.6L3.0,23.6" stroke="#3266b4"/></g><g transform="translate(255.500000,476.000000)" id="shape36"><path stroke-width="1" fill="none" d="M.0,.0L-35.5,.0" stroke="#3266b4"/><path stroke-linecap="round" stroke-width="1" fill="#3266b4" d="M-35.5,3.0L-41.5,.0L-35.5,-3.0L-35.5,3.0" stroke="#3266b4"/><rect y="-9.5" fill="#ffffff" x="-26.3" width="13.0" height="19.0"/><text style="fill:#191919;font-family:微软雅黑,PingFang SC,Mircrosoft YaHei,Arial;font-size:10.00pt" xml:space="preserve"><tspan style="font-family:微软雅黑,PingFang SC,Mircrosoft YaHei,Arial" y="5.5" x="-26.3">是</tspan></text></g><g transform="translate(346.500000,654.000000)" id="shape37"><path stroke-width="1" fill="none" d="M.0,.0L.0,17.0" stroke="#3266b4"/><path stroke-linecap="round" stroke-width="1" fill="#3266b4" d="M3.0,17.0L.0,23.0L-3.0,17.0L3.0,17.0" stroke="#3266b4"/></g><g transform="translate(456.500000,707.000000)" id="shape38"><path stroke-width="1" fill="none" d="M.0,.0L62.0,.0" stroke="#3266b4"/><path stroke-linecap="round" stroke-width="1" fill="#3266b4" d="M62.0,-3.0L68.0,.0L62.0,3.0L62.0,-3.0" stroke="#3266b4"/></g><g transform="translate(706.750000,707.000000)" id="shape39"><path stroke-width="1" fill="none" d="M.0,.0L51.0,.0" stroke="#3266b4"/><path stroke-linecap="round" stroke-width="1" fill="#3266b4" d="M51.0,-3.0L57.0,.0L51.0,3.0L51.0,-3.0" stroke="#3266b4"/><rect y="-9.5" fill="#ffffff" x="10.0" width="39.0" height="19.0"/><text style="fill:#191919;font-family:微软雅黑,PingFang SC,Mircrosoft YaHei,Arial;font-size:10.00pt" xml:space="preserve"><tspan style="font-family:微软雅黑,PingFang SC,Mircrosoft YaHei,Arial" y="5.5" x="10.0">不存在</tspan></text></g><g transform="translate(706.750000,880.219000)" id="shape40"><path stroke-width="1" fill="none" d="M.0,.0L50.3,.0" stroke="#3266b4"/><path stroke-linecap="round" stroke-width="1" fill="#3266b4" d="M50.3,-3.0L56.3,.0L50.3,3.0L50.3,-3.0" stroke="#3266b4"/><rect y="-9.5" fill="#ffffff" x="22.6" width="13.0" height="19.0"/><text style="fill:#191919;font-family:微软雅黑,PingFang SC,Mircrosoft YaHei,Arial;font-size:10.00pt" xml:space="preserve"><tspan style="font-family:微软雅黑,PingFang SC,Mircrosoft YaHei,Arial" y="5.5" x="22.6">否</tspan></text></g><g transform="translate(706.750000,1155.590000)" id="shape41"><path stroke-width="1" fill="none" d="M.0,.0L51.0,.0" stroke="#3266b4"/><path stroke-linecap="round" stroke-width="1" fill="#3266b4" d="M51.0,-3.0L57.0,.0L51.0,3.0L51.0,-3.0" stroke="#3266b4"/><rect y="-9.5" fill="#ffffff" x="23.0" width="13.0" height="19.0"/><text style="fill:#191919;font-family:微软雅黑,PingFang SC,Mircrosoft YaHei,Arial;font-size:10.00pt" xml:space="preserve"><tspan style="font-family:微软雅黑,PingFang SC,Mircrosoft YaHei,Arial" y="5.5" x="23.0">是</tspan></text></g></g></svg>